<svg width="730" height="302" viewBox="0 0 730 302" fill="none" xmlns="http://www.w3.org/2000/svg">
<rect width="230" height="120" fill="white"/>
<path d="M76.7 66.775C81.05 66.225 84.45 62.75 84.45 58.025C84.525 52.575 80.275 49.15 75.45 49.2C70.65 49.125 66.325 52.875 66.425 58.075C66.375 62.675 69.875 66.225 74.125 66.75C74.15 70.15 76.125 72.025 79.325 72.025C82.3 72.025 84.15 70.35 84.15 67.45H81.75C81.75 68.85 80.825 69.675 79.325 69.675C77.65 69.675 76.725 68.8 76.7 66.775ZM81.675 58.075C81.675 61.5 79.175 64.2 75.45 64.2C71.625 64.2 69.2 61.55 69.2 58.125C69.2 54.65 71.7 51.85 75.45 51.85C79.225 51.85 81.675 54.6 81.675 58.075ZM100.971 61.25H98.5455V53.175H95.8705V61.25H89.3455L96.9705 49.55H93.8705L86.3955 61.25V63.725H95.8705V66.5H98.5455V63.725H100.971V61.25ZM101.945 64.75C101.945 65.85 102.87 66.725 103.995 66.725C105.12 66.725 105.945 65.875 105.945 64.75C105.945 63.625 105.045 62.775 103.945 62.775C102.82 62.775 101.945 63.625 101.945 64.75ZM117.206 63.925C120.256 62.2 122.431 60.6 123.706 59.125C124.981 57.65 125.631 56.15 125.631 54.625C125.631 51.55 123.356 49.2 119.481 49.2C115.881 49.2 113.231 51.675 113.031 55.2H115.681C115.956 53.2 117.381 51.825 119.481 51.825C121.506 51.825 122.856 53 122.856 54.675C122.856 55.425 122.656 56.175 122.231 56.9C121.831 57.625 120.931 58.55 119.556 59.7C118.181 60.825 116.106 62.25 113.356 63.925V66.5H125.631V63.925H117.206ZM127.392 57.95C127.317 63.4 130.767 66.775 134.367 66.725C138.117 66.725 141.317 63.475 141.317 57.875C141.317 52.175 138.317 49.2 134.367 49.2C130.517 49.2 127.392 52.25 127.392 57.95ZM138.592 57.95C138.592 61.975 136.617 64.125 134.367 64.125C132.092 64.125 130.117 61.975 130.117 57.95C130.117 53.8 132.142 51.8 134.367 51.8C136.667 51.8 138.592 53.9 138.592 57.95ZM146.651 63.925C149.701 62.2 151.876 60.6 153.151 59.125C154.426 57.65 155.076 56.15 155.076 54.625C155.076 51.55 152.801 49.2 148.926 49.2C145.326 49.2 142.676 51.675 142.476 55.2H145.126C145.401 53.2 146.826 51.825 148.926 51.825C150.951 51.825 152.301 53 152.301 54.675C152.301 55.425 152.101 56.175 151.676 56.9C151.276 57.625 150.376 58.55 149.001 59.7C147.626 60.825 145.551 62.25 142.801 63.925V66.5H155.076V63.925H146.651ZM160.074 66.5H162.749V49.2H161.224L160.074 51.575H155.974V53.95H160.074V66.5Z" fill="black"/>
<circle cx="210" cy="20" r="10" fill="#EBEBEB"/>
<rect width="230" height="120" transform="translate(500)" fill="white"/>
<path d="M574.7 66.775C579.05 66.225 582.45 62.75 582.45 58.025C582.525 52.575 578.275 49.15 573.45 49.2C568.65 49.125 564.325 52.875 564.425 58.075C564.375 62.675 567.875 66.225 572.125 66.75C572.15 70.15 574.125 72.025 577.325 72.025C580.3 72.025 582.15 70.35 582.15 67.45H579.75C579.75 68.85 578.825 69.675 577.325 69.675C575.65 69.675 574.725 68.8 574.7 66.775ZM579.675 58.075C579.675 61.5 577.175 64.2 573.45 64.2C569.625 64.2 567.2 61.55 567.2 58.125C567.2 54.65 569.7 51.85 573.45 51.85C577.225 51.85 579.675 54.6 579.675 58.075ZM588.103 63.925C591.153 62.2 593.328 60.6 594.603 59.125C595.878 57.65 596.528 56.15 596.528 54.625C596.528 51.55 594.253 49.2 590.378 49.2C586.778 49.2 584.128 51.675 583.928 55.2H586.578C586.853 53.2 588.278 51.825 590.378 51.825C592.403 51.825 593.753 53 593.753 54.675C593.753 55.425 593.553 56.175 593.128 56.9C592.728 57.625 591.828 58.55 590.453 59.7C589.078 60.825 587.003 62.25 584.253 63.925V66.5H596.528V63.925H588.103ZM598.114 64.75C598.114 65.85 599.039 66.725 600.164 66.725C601.289 66.725 602.114 65.875 602.114 64.75C602.114 63.625 601.214 62.775 600.114 62.775C598.989 62.775 598.114 63.625 598.114 64.75ZM613.375 63.925C616.425 62.2 618.6 60.6 619.875 59.125C621.15 57.65 621.8 56.15 621.8 54.625C621.8 51.55 619.525 49.2 615.65 49.2C612.05 49.2 609.4 51.675 609.2 55.2H611.85C612.125 53.2 613.55 51.825 615.65 51.825C617.675 51.825 619.025 53 619.025 54.675C619.025 55.425 618.825 56.175 618.4 56.9C618 57.625 617.1 58.55 615.725 59.7C614.35 60.825 612.275 62.25 609.525 63.925V66.5H621.8V63.925H613.375ZM623.561 57.95C623.486 63.4 626.936 66.775 630.536 66.725C634.286 66.725 637.486 63.475 637.486 57.875C637.486 52.175 634.486 49.2 630.536 49.2C626.686 49.2 623.561 52.25 623.561 57.95ZM634.761 57.95C634.761 61.975 632.786 64.125 630.536 64.125C628.261 64.125 626.286 61.975 626.286 57.95C626.286 53.8 628.311 51.8 630.536 51.8C632.836 51.8 634.761 53.9 634.761 57.95ZM642.82 63.925C645.87 62.2 648.045 60.6 649.32 59.125C650.595 57.65 651.245 56.15 651.245 54.625C651.245 51.55 648.97 49.2 645.095 49.2C641.495 49.2 638.845 51.675 638.645 55.2H641.295C641.57 53.2 642.995 51.825 645.095 51.825C647.12 51.825 648.47 53 648.47 54.675C648.47 55.425 648.27 56.175 647.845 56.9C647.445 57.625 646.545 58.55 645.17 59.7C643.795 60.825 641.72 62.25 638.97 63.925V66.5H651.245V63.925H642.82ZM656.981 63.925C660.031 62.2 662.206 60.6 663.481 59.125C664.756 57.65 665.406 56.15 665.406 54.625C665.406 51.55 663.131 49.2 659.256 49.2C655.656 49.2 653.006 51.675 652.806 55.2H655.456C655.731 53.2 657.156 51.825 659.256 51.825C661.281 51.825 662.631 53 662.631 54.675C662.631 55.425 662.431 56.175 662.006 56.9C661.606 57.625 660.706 58.55 659.331 59.7C657.956 60.825 655.881 62.25 653.131 63.925V66.5H665.406V63.925H656.981Z" fill="black"/>
<circle cx="710" cy="20" r="10" fill="#EBEBEB"/>
<rect width="230" height="120" transform="translate(0 140)" fill="white"/>
<path d="M74.7 206.775C79.05 206.225 82.45 202.75 82.45 198.025C82.525 192.575 78.275 189.15 73.45 189.2C68.65 189.125 64.325 192.875 64.425 198.075C64.375 202.675 67.875 206.225 72.125 206.75C72.15 210.15 74.125 212.025 77.325 212.025C80.3 212.025 82.15 210.35 82.15 207.45H79.75C79.75 208.85 78.825 209.675 77.325 209.675C75.65 209.675 74.725 208.8 74.7 206.775ZM79.675 198.075C79.675 201.5 77.175 204.2 73.45 204.2C69.625 204.2 67.2 201.55 67.2 198.125C67.2 194.65 69.7 191.85 73.45 191.85C77.225 191.85 79.675 194.6 79.675 198.075ZM96.8072 201.6C96.8072 199.475 95.3822 197.925 92.9822 197.625C94.9822 197.35 96.2322 195.95 96.2322 193.95C96.2322 191.25 94.1072 189.2 90.4322 189.2C86.8072 189.2 84.3322 191.475 84.0822 194.725H86.7322C86.9072 192.95 88.2822 191.825 90.3822 191.825C92.3072 191.825 93.4822 192.65 93.4822 194.125C93.4822 195.725 92.4322 196.45 90.0322 196.45H87.6072V198.925H90.0322C92.7072 198.925 94.0572 199.775 94.0572 201.5C94.0572 203.075 92.7072 204.075 90.3072 204.075C87.9072 204.075 86.4572 203.125 86.2322 201.2H83.5822C83.8072 204.875 86.5322 206.725 90.3572 206.725C94.3322 206.725 96.8072 204.55 96.8072 201.6ZM98.334 204.75C98.334 205.85 99.259 206.725 100.384 206.725C101.509 206.725 102.334 205.875 102.334 204.75C102.334 203.625 101.434 202.775 100.334 202.775C99.209 202.775 98.334 203.625 98.334 204.75ZM113.594 203.925C116.644 202.2 118.819 200.6 120.094 199.125C121.369 197.65 122.019 196.15 122.019 194.625C122.019 191.55 119.744 189.2 115.869 189.2C112.269 189.2 109.619 191.675 109.419 195.2H112.069C112.344 193.2 113.769 191.825 115.869 191.825C117.894 191.825 119.244 193 119.244 194.675C119.244 195.425 119.044 196.175 118.619 196.9C118.219 197.625 117.319 198.55 115.944 199.7C114.569 200.825 112.494 202.25 109.744 203.925V206.5H122.019V203.925H113.594ZM123.78 197.95C123.705 203.4 127.155 206.775 130.755 206.725C134.505 206.725 137.705 203.475 137.705 197.875C137.705 192.175 134.705 189.2 130.755 189.2C126.905 189.2 123.78 192.25 123.78 197.95ZM134.98 197.95C134.98 201.975 133.005 204.125 130.755 204.125C128.48 204.125 126.505 201.975 126.505 197.95C126.505 193.8 128.53 191.8 130.755 191.8C133.055 191.8 134.98 193.9 134.98 197.95ZM143.04 203.925C146.09 202.2 148.265 200.6 149.54 199.125C150.815 197.65 151.465 196.15 151.465 194.625C151.465 191.55 149.19 189.2 145.315 189.2C141.715 189.2 139.065 191.675 138.865 195.2H141.515C141.79 193.2 143.215 191.825 145.315 191.825C147.34 191.825 148.69 193 148.69 194.675C148.69 195.425 148.49 196.175 148.065 196.9C147.665 197.625 146.765 198.55 145.39 199.7C144.015 200.825 141.94 202.25 139.19 203.925V206.5H151.465V203.925H143.04ZM157.201 203.925C160.251 202.2 162.426 200.6 163.701 199.125C164.976 197.65 165.626 196.15 165.626 194.625C165.626 191.55 163.351 189.2 159.476 189.2C155.876 189.2 153.226 191.675 153.026 195.2H155.676C155.951 193.2 157.376 191.825 159.476 191.825C161.501 191.825 162.851 193 162.851 194.675C162.851 195.425 162.651 196.175 162.226 196.9C161.826 197.625 160.926 198.55 159.551 199.7C158.176 200.825 156.101 202.25 153.351 203.925V206.5H165.626V203.925H157.201Z" fill="black"/>
<circle cx="210" cy="160" r="10" fill="#EBEBEB"/>
<rect width="230" height="120" transform="translate(250 140)" fill="white"/>
<path d="M323.7 206.775C328.05 206.225 331.45 202.75 331.45 198.025C331.525 192.575 327.275 189.15 322.45 189.2C317.65 189.125 313.325 192.875 313.425 198.075C313.375 202.675 316.875 206.225 321.125 206.75C321.15 210.15 323.125 212.025 326.325 212.025C329.3 212.025 331.15 210.35 331.15 207.45H328.75C328.75 208.85 327.825 209.675 326.325 209.675C324.65 209.675 323.725 208.8 323.7 206.775ZM328.675 198.075C328.675 201.5 326.175 204.2 322.45 204.2C318.625 204.2 316.2 201.55 316.2 198.125C316.2 194.65 318.7 191.85 322.45 191.85C326.225 191.85 328.675 194.6 328.675 198.075ZM347.971 201.25H345.546V193.175H342.871V201.25H336.346L343.971 189.55H340.871L333.396 201.25V203.725H342.871V206.5H345.546V203.725H347.971V201.25ZM348.945 204.75C348.945 205.85 349.87 206.725 350.995 206.725C352.12 206.725 352.945 205.875 352.945 204.75C352.945 203.625 352.045 202.775 350.945 202.775C349.82 202.775 348.945 203.625 348.945 204.75ZM364.206 203.925C367.256 202.2 369.431 200.6 370.706 199.125C371.981 197.65 372.631 196.15 372.631 194.625C372.631 191.55 370.356 189.2 366.481 189.2C362.881 189.2 360.231 191.675 360.031 195.2H362.681C362.956 193.2 364.381 191.825 366.481 191.825C368.506 191.825 369.856 193 369.856 194.675C369.856 195.425 369.656 196.175 369.231 196.9C368.831 197.625 367.931 198.55 366.556 199.7C365.181 200.825 363.106 202.25 360.356 203.925V206.5H372.631V203.925H364.206ZM374.392 197.95C374.317 203.4 377.767 206.775 381.367 206.725C385.117 206.725 388.317 203.475 388.317 197.875C388.317 192.175 385.317 189.2 381.367 189.2C377.517 189.2 374.392 192.25 374.392 197.95ZM385.592 197.95C385.592 201.975 383.617 204.125 381.367 204.125C379.092 204.125 377.117 201.975 377.117 197.95C377.117 193.8 379.142 191.8 381.367 191.8C383.667 191.8 385.592 193.9 385.592 197.95ZM393.651 203.925C396.701 202.2 398.876 200.6 400.151 199.125C401.426 197.65 402.076 196.15 402.076 194.625C402.076 191.55 399.801 189.2 395.926 189.2C392.326 189.2 389.676 191.675 389.476 195.2H392.126C392.401 193.2 393.826 191.825 395.926 191.825C397.951 191.825 399.301 193 399.301 194.675C399.301 195.425 399.101 196.175 398.676 196.9C398.276 197.625 397.376 198.55 396.001 199.7C394.626 200.825 392.551 202.25 389.801 203.925V206.5H402.076V203.925H393.651ZM407.812 203.925C410.862 202.2 413.037 200.6 414.312 199.125C415.587 197.65 416.237 196.15 416.237 194.625C416.237 191.55 413.962 189.2 410.087 189.2C406.487 189.2 403.837 191.675 403.637 195.2H406.287C406.562 193.2 407.987 191.825 410.087 191.825C412.112 191.825 413.462 193 413.462 194.675C413.462 195.425 413.262 196.175 412.837 196.9C412.437 197.625 411.537 198.55 410.162 199.7C408.787 200.825 406.712 202.25 403.962 203.925V206.5H416.237V203.925H407.812Z" fill="black"/>
<circle cx="460" cy="160" r="10" fill="#EBEBEB"/>
<rect width="230" height="120" transform="translate(500 140)" fill="white"/>
<path d="M577.2 206.775C581.55 206.225 584.95 202.75 584.95 198.025C585.025 192.575 580.775 189.15 575.95 189.2C571.15 189.125 566.825 192.875 566.925 198.075C566.875 202.675 570.375 206.225 574.625 206.75C574.65 210.15 576.625 212.025 579.825 212.025C582.8 212.025 584.65 210.35 584.65 207.45H582.25C582.25 208.85 581.325 209.675 579.825 209.675C578.15 209.675 577.225 208.8 577.2 206.775ZM582.175 198.075C582.175 201.5 579.675 204.2 575.95 204.2C572.125 204.2 569.7 201.55 569.7 198.125C569.7 194.65 572.2 191.85 575.95 191.85C579.725 191.85 582.175 194.6 582.175 198.075ZM589.987 206.5H592.662V189.2H591.137L589.987 191.575H585.887V193.95H589.987V206.5ZM595.097 204.75C595.097 205.85 596.022 206.725 597.147 206.725C598.272 206.725 599.097 205.875 599.097 204.75C599.097 203.625 598.197 202.775 597.097 202.775C595.972 202.775 595.097 203.625 595.097 204.75ZM610.357 203.925C613.407 202.2 615.582 200.6 616.857 199.125C618.132 197.65 618.782 196.15 618.782 194.625C618.782 191.55 616.507 189.2 612.632 189.2C609.032 189.2 606.382 191.675 606.182 195.2H608.832C609.107 193.2 610.532 191.825 612.632 191.825C614.657 191.825 616.007 193 616.007 194.675C616.007 195.425 615.807 196.175 615.382 196.9C614.982 197.625 614.082 198.55 612.707 199.7C611.332 200.825 609.257 202.25 606.507 203.925V206.5H618.782V203.925H610.357ZM620.543 197.95C620.468 203.4 623.918 206.775 627.518 206.725C631.268 206.725 634.468 203.475 634.468 197.875C634.468 192.175 631.468 189.2 627.518 189.2C623.668 189.2 620.543 192.25 620.543 197.95ZM631.743 197.95C631.743 201.975 629.768 204.125 627.518 204.125C625.243 204.125 623.268 201.975 623.268 197.95C623.268 193.8 625.293 191.8 627.518 191.8C629.818 191.8 631.743 193.9 631.743 197.95ZM639.802 203.925C642.852 202.2 645.027 200.6 646.302 199.125C647.577 197.65 648.227 196.15 648.227 194.625C648.227 191.55 645.952 189.2 642.077 189.2C638.477 189.2 635.827 191.675 635.627 195.2H638.277C638.552 193.2 639.977 191.825 642.077 191.825C644.102 191.825 645.452 193 645.452 194.675C645.452 195.425 645.252 196.175 644.827 196.9C644.427 197.625 643.527 198.55 642.152 199.7C640.777 200.825 638.702 202.25 635.952 203.925V206.5H648.227V203.925H639.802ZM662.838 201.6C662.838 199.475 661.413 197.925 659.013 197.625C661.013 197.35 662.263 195.95 662.263 193.95C662.263 191.25 660.138 189.2 656.463 189.2C652.838 189.2 650.363 191.475 650.113 194.725H652.763C652.938 192.95 654.313 191.825 656.413 191.825C658.338 191.825 659.513 192.65 659.513 194.125C659.513 195.725 658.463 196.45 656.063 196.45H653.638V198.925H656.063C658.738 198.925 660.088 199.775 660.088 201.5C660.088 203.075 658.738 204.075 656.338 204.075C653.938 204.075 652.488 203.125 652.263 201.2H649.613C649.838 204.875 652.563 206.725 656.388 206.725C660.363 206.725 662.838 204.55 662.838 201.6Z" fill="black"/>
<circle cx="710" cy="160" r="10" fill="#EBEBEB"/>
<rect width="230" height="120" transform="translate(250)" fill="white"/>
<path d="M327.2 66.775C331.55 66.225 334.95 62.75 334.95 58.025C335.025 52.575 330.775 49.15 325.95 49.2C321.15 49.125 316.825 52.875 316.925 58.075C316.875 62.675 320.375 66.225 324.625 66.75C324.65 70.15 326.625 72.025 329.825 72.025C332.8 72.025 334.65 70.35 334.65 67.45H332.25C332.25 68.85 331.325 69.675 329.825 69.675C328.15 69.675 327.225 68.8 327.2 66.775ZM332.175 58.075C332.175 61.5 329.675 64.2 325.95 64.2C322.125 64.2 319.7 61.55 319.7 58.125C319.7 54.65 322.2 51.85 325.95 51.85C329.725 51.85 332.175 54.6 332.175 58.075ZM339.987 66.5H342.662V49.2H341.137L339.987 51.575H335.887V53.95H339.987V66.5ZM345.097 64.75C345.097 65.85 346.022 66.725 347.147 66.725C348.272 66.725 349.097 65.875 349.097 64.75C349.097 63.625 348.197 62.775 347.097 62.775C345.972 62.775 345.097 63.625 345.097 64.75ZM360.357 63.925C363.407 62.2 365.582 60.6 366.857 59.125C368.132 57.65 368.782 56.15 368.782 54.625C368.782 51.55 366.507 49.2 362.632 49.2C359.032 49.2 356.382 51.675 356.182 55.2H358.832C359.107 53.2 360.532 51.825 362.632 51.825C364.657 51.825 366.007 53 366.007 54.675C366.007 55.425 365.807 56.175 365.382 56.9C364.982 57.625 364.082 58.55 362.707 59.7C361.332 60.825 359.257 62.25 356.507 63.925V66.5H368.782V63.925H360.357ZM370.543 57.95C370.468 63.4 373.918 66.775 377.518 66.725C381.268 66.725 384.468 63.475 384.468 57.875C384.468 52.175 381.468 49.2 377.518 49.2C373.668 49.2 370.543 52.25 370.543 57.95ZM381.743 57.95C381.743 61.975 379.768 64.125 377.518 64.125C375.243 64.125 373.268 61.975 373.268 57.95C373.268 53.8 375.293 51.8 377.518 51.8C379.818 51.8 381.743 53.9 381.743 57.95ZM389.802 63.925C392.852 62.2 395.027 60.6 396.302 59.125C397.577 57.65 398.227 56.15 398.227 54.625C398.227 51.55 395.952 49.2 392.077 49.2C388.477 49.2 385.827 51.675 385.627 55.2H388.277C388.552 53.2 389.977 51.825 392.077 51.825C394.102 51.825 395.452 53 395.452 54.675C395.452 55.425 395.252 56.175 394.827 56.9C394.427 57.625 393.527 58.55 392.152 59.7C390.777 60.825 388.702 62.25 385.952 63.925V66.5H398.227V63.925H389.802ZM403.963 63.925C407.013 62.2 409.188 60.6 410.463 59.125C411.738 57.65 412.388 56.15 412.388 54.625C412.388 51.55 410.113 49.2 406.238 49.2C402.638 49.2 399.988 51.675 399.788 55.2H402.438C402.713 53.2 404.138 51.825 406.238 51.825C408.263 51.825 409.613 53 409.613 54.675C409.613 55.425 409.413 56.175 408.988 56.9C408.588 57.625 407.688 58.55 406.313 59.7C404.938 60.825 402.863 62.25 400.113 63.925V66.5H412.388V63.925H403.963Z" fill="black"/>
<circle cx="460" cy="20" r="10" fill="#EBEBEB"/>
<path d="M652.932 299.588C652.932 300.368 652.476 300.788 651.696 300.788C650.832 300.788 650.292 300.308 650.28 299.156C652.392 299.072 654.288 297.296 654.252 294.956C654.288 292.34 652.26 290.672 650.028 290.696C647.82 290.66 645.744 292.46 645.792 294.956C645.744 297.26 647.568 298.964 649.596 299.144C649.608 300.62 650.364 301.424 651.696 301.424C652.86 301.424 653.616 300.776 653.616 299.588H652.932ZM650.028 298.472C647.976 298.472 646.524 296.972 646.524 294.98C646.524 292.928 648 291.392 650.028 291.392C652.044 291.392 653.52 292.904 653.52 294.956C653.52 296.96 652.032 298.472 650.028 298.472ZM657.028 298.352C659.524 296.804 660.784 295.616 661.252 294.668C661.492 294.188 661.612 293.696 661.612 293.192C661.612 291.764 660.532 290.696 658.864 290.696C657.316 290.696 656.032 291.776 655.912 293.576H656.584C656.716 292.244 657.58 291.368 658.864 291.368C660.1 291.368 660.88 292.1 660.892 293.204C660.892 293.636 660.784 294.068 660.556 294.5C660.34 294.92 659.872 295.448 659.164 296.084C658.456 296.708 657.4 297.464 656.02 298.352V299H661.636V298.352H657.028ZM663.435 298.436C663.435 298.808 663.735 299.108 664.131 299.108C664.515 299.108 664.803 298.82 664.803 298.436C664.803 298.04 664.503 297.752 664.119 297.752C663.735 297.752 663.435 298.04 663.435 298.436ZM671.382 298.352C673.878 296.804 675.138 295.616 675.606 294.668C675.846 294.188 675.966 293.696 675.966 293.192C675.966 291.764 674.886 290.696 673.218 290.696C671.67 290.696 670.386 291.776 670.266 293.576H670.938C671.07 292.244 671.934 291.368 673.218 291.368C674.454 291.368 675.234 292.1 675.246 293.204C675.246 293.636 675.138 294.068 674.91 294.5C674.694 294.92 674.226 295.448 673.518 296.084C672.81 296.708 671.754 297.464 670.374 298.352V299H675.99V298.352H671.382ZM677.981 294.896C677.957 297.476 679.493 299.144 681.245 299.108C683.033 299.144 684.533 297.488 684.497 294.86C684.497 292.22 683.093 290.696 681.245 290.696C679.409 290.696 677.981 292.232 677.981 294.896ZM683.765 294.896C683.765 297.2 682.541 298.424 681.245 298.424C679.925 298.424 678.701 297.224 678.701 294.932C678.701 292.556 679.949 291.38 681.245 291.38C682.577 291.38 683.765 292.568 683.765 294.896ZM687.237 298.352C689.733 296.804 690.993 295.616 691.461 294.668C691.701 294.188 691.821 293.696 691.821 293.192C691.821 291.764 690.741 290.696 689.073 290.696C687.525 290.696 686.241 291.776 686.121 293.576H686.793C686.925 292.244 687.789 291.368 689.073 291.368C690.309 291.368 691.089 292.1 691.101 293.204C691.101 293.636 690.993 294.068 690.765 294.5C690.549 294.92 690.081 295.448 689.373 296.084C688.665 296.708 687.609 297.464 686.229 298.352V299H691.845V298.352H687.237ZM699.56 296.744C699.56 295.676 698.972 294.92 697.868 294.716C698.792 294.476 699.332 293.828 699.332 292.88C699.332 291.596 698.24 290.696 696.62 290.696C695.012 290.696 693.86 291.788 693.74 293.348H694.412C694.448 292.76 694.676 292.28 695.072 291.92C695.468 291.548 695.984 291.368 696.62 291.368C697.832 291.368 698.6 291.92 698.6 292.88C698.6 293.9 697.928 294.416 696.584 294.416H695.312V295.052H696.584C698.06 295.052 698.828 295.628 698.828 296.744C698.828 297.74 698.012 298.436 696.62 298.436C695.144 298.436 694.352 297.776 694.22 296.456H693.548C693.608 297.368 693.92 298.04 694.508 298.472C695.096 298.892 695.804 299.108 696.62 299.108C698.348 299.108 699.56 298.1 699.56 296.744Z" fill="black"/>
<path d="M716.379 295.564L724.496 295.547L720.471 291.562L720.999 291.04L725.949 295.94L721.125 300.715L720.583 300.179L724.506 296.296L716.378 296.313L716.379 295.564Z" fill="black"/>
<path d="M9.57011 295.564L1.4536 295.547L5.47827 291.562L4.95002 291.04L9.63211e-05 295.94L4.82432 300.715L5.36628 300.179L1.44387 296.296L9.57185 296.313L9.57011 295.564Z" fill="black"/>
<path d="M32.8815 299.588C32.8815 300.368 32.4255 300.788 31.6455 300.788C30.7815 300.788 30.2415 300.308 30.2295 299.156C32.3415 299.072 34.2375 297.296 34.2015 294.956C34.2375 292.34 32.2095 290.672 29.9775 290.696C27.7695 290.66 25.6935 292.46 25.7415 294.956C25.6935 297.26 27.5175 298.964 29.5455 299.144C29.5575 300.62 30.3135 301.424 31.6455 301.424C32.8095 301.424 33.5655 300.776 33.5655 299.588H32.8815ZM29.9775 298.472C27.9255 298.472 26.4735 296.972 26.4735 294.98C26.4735 292.928 27.9495 291.392 29.9775 291.392C31.9935 291.392 33.4695 292.904 33.4695 294.956C33.4695 296.96 31.9815 298.472 29.9775 298.472ZM41.7541 296.744C41.7541 295.676 41.1661 294.92 40.0621 294.716C40.9861 294.476 41.5261 293.828 41.5261 292.88C41.5261 291.596 40.4341 290.696 38.8141 290.696C37.2061 290.696 36.0541 291.788 35.9341 293.348H36.6061C36.6421 292.76 36.8701 292.28 37.2661 291.92C37.6621 291.548 38.1781 291.368 38.8141 291.368C40.0261 291.368 40.7941 291.92 40.7941 292.88C40.7941 293.9 40.1221 294.416 38.7781 294.416H37.5061V295.052H38.7781C40.2541 295.052 41.0221 295.628 41.0221 296.744C41.0221 297.74 40.2061 298.436 38.8141 298.436C37.3381 298.436 36.5461 297.776 36.4141 296.456H35.7421C35.8021 297.368 36.1141 298.04 36.7021 298.472C37.2901 298.892 37.9981 299.108 38.8141 299.108C40.5421 299.108 41.7541 298.1 41.7541 296.744ZM43.6071 298.436C43.6071 298.808 43.9071 299.108 44.3031 299.108C44.6871 299.108 44.9751 298.82 44.9751 298.436C44.9751 298.04 44.6751 297.752 44.2911 297.752C43.9071 297.752 43.6071 298.04 43.6071 298.436ZM51.5542 298.352C54.0502 296.804 55.3102 295.616 55.7782 294.668C56.0182 294.188 56.1382 293.696 56.1382 293.192C56.1382 291.764 55.0582 290.696 53.3902 290.696C51.8422 290.696 50.5582 291.776 50.4382 293.576H51.1102C51.2422 292.244 52.1062 291.368 53.3902 291.368C54.6262 291.368 55.4062 292.1 55.4182 293.204C55.4182 293.636 55.3102 294.068 55.0822 294.5C54.8662 294.92 54.3982 295.448 53.6902 296.084C52.9822 296.708 51.9262 297.464 50.5462 298.352V299H56.1622V298.352H51.5542ZM58.1532 294.896C58.1292 297.476 59.6652 299.144 61.4172 299.108C63.2052 299.144 64.7052 297.488 64.6692 294.86C64.6692 292.22 63.2652 290.696 61.4172 290.696C59.5812 290.696 58.1532 292.232 58.1532 294.896ZM63.9372 294.896C63.9372 297.2 62.7132 298.424 61.4172 298.424C60.0972 298.424 58.8732 297.224 58.8732 294.932C58.8732 292.556 60.1212 291.38 61.4172 291.38C62.7492 291.38 63.9372 292.568 63.9372 294.896ZM67.4087 298.352C69.9047 296.804 71.1647 295.616 71.6327 294.668C71.8727 294.188 71.9927 293.696 71.9927 293.192C71.9927 291.764 70.9127 290.696 69.2447 290.696C67.6967 290.696 66.4127 291.776 66.2927 293.576H66.9647C67.0967 292.244 67.9607 291.368 69.2447 291.368C70.4807 291.368 71.2607 292.1 71.2727 293.204C71.2727 293.636 71.1647 294.068 70.9367 294.5C70.7207 294.92 70.2527 295.448 69.5447 296.084C68.8367 296.708 67.7807 297.464 66.4007 298.352V299H72.0167V298.352H67.4087ZM75.3693 299H76.0773V290.696H75.7773L75.3693 291.92H73.5813V292.508H75.3693V299Z" fill="black"/>
</svg>
