<svg width="108" height="43" viewBox="0 0 108 43" fill="none" xmlns="http://www.w3.org/2000/svg">
<g id="LOGO EASY" clip-path="url(#clip0)">
<path id="arianespace" d="M100 37.525V37.492C99.9809 36.3328 100.383 35.206 101.132 34.321C101.493 33.9038 101.939 33.5697 102.441 33.3416C102.943 33.1136 103.489 32.997 104.04 33C104.609 32.9815 105.174 33.0977 105.689 33.3391C106.205 33.5805 106.656 33.9402 107.006 34.389C107.685 35.3338 108.034 36.4759 108 37.639C108 37.796 107.987 37.955 107.974 38.122L107.969 38.195H101.895C101.935 38.7957 102.204 39.3581 102.647 39.7656C103.09 40.1731 103.673 40.3946 104.275 40.384C104.701 40.3842 105.121 40.2923 105.507 40.1145C105.894 39.9367 106.237 39.6772 106.514 39.354L107.625 40.384C107.228 40.9003 106.715 41.3157 106.127 41.5964C105.54 41.8772 104.894 42.0155 104.243 42C103.665 42.0042 103.092 41.8895 102.56 41.6631C102.028 41.4367 101.548 41.1033 101.15 40.6837C100.752 40.264 100.445 39.7671 100.247 39.2238C100.049 38.6804 99.9651 38.1022 100 37.525ZM101.878 36.888H106.121C105.983 35.488 105.18 34.617 104.021 34.617C103.442 34.653 102.899 34.9077 102.502 35.3294C102.104 35.7511 101.881 36.3083 101.879 36.888H101.878ZM92.0001 37.541V37.508C91.9928 36.9147 92.1042 36.3259 92.3277 35.7762C92.5512 35.2265 92.8823 34.7271 93.3015 34.3071C93.7207 33.8872 94.2196 33.5552 94.7688 33.3307C95.3181 33.1063 95.9067 32.9938 96.5001 33C97.1499 32.9752 97.797 33.0958 98.3942 33.3531C98.9914 33.6104 99.5237 33.9978 99.9521 34.487L98.7071 35.809C98.4384 35.4766 98.0997 35.2077 97.715 35.0216C97.3304 34.8354 96.9094 34.7365 96.4821 34.732C96.1367 34.7448 95.7974 34.8262 95.484 34.9716C95.1705 35.117 94.8892 35.3234 94.6564 35.5788C94.4236 35.8342 94.2441 36.1335 94.1283 36.459C94.0125 36.7846 93.9628 37.13 93.9821 37.475V37.508C93.962 37.861 94.0138 38.2144 94.1344 38.5468C94.255 38.8791 94.4417 39.1836 94.6834 39.4416C94.9251 39.6997 95.2167 39.906 95.5405 40.048C95.8643 40.1901 96.2135 40.2649 96.5671 40.268C96.9944 40.2594 97.4151 40.1603 97.8014 39.9773C98.1877 39.7942 98.5308 39.5314 98.8081 39.206L100 40.383C99.4061 41.0902 98.6102 41.599 97.719 41.8412C96.8279 42.0835 95.8839 42.0476 95.0137 41.7385C94.1435 41.4293 93.3885 40.8616 92.8499 40.1114C92.3113 39.3613 92.0147 38.4644 92.0001 37.541ZM83.9451 41.312C83.6418 41.076 83.3983 40.7721 83.2341 40.4247C83.0699 40.0773 82.9898 39.6961 83.0001 39.312V39.28C82.9808 38.8723 83.0637 38.4662 83.2411 38.0986C83.4185 37.7311 83.6849 37.4136 84.0161 37.175C84.8023 36.6738 85.7248 36.4292 86.6561 36.475C87.4641 36.4659 88.2682 36.5882 89.0371 36.837V36.626C89.0371 35.386 88.2771 34.726 86.8371 34.726C85.964 34.7282 85.1011 34.9135 84.3041 35.27L83.7721 33.708C84.8178 33.2253 85.9584 32.9834 87.1101 33C88.1785 32.9225 89.2341 33.272 90.0451 33.972C90.3803 34.3302 90.6381 34.7537 90.8024 35.216C90.9667 35.6783 91.034 36.1695 91.0001 36.659V41.818H89.0211V40.731C88.6672 41.1464 88.224 41.4764 87.7245 41.6961C87.2251 41.9159 86.6824 42.0198 86.1371 42C85.3503 42.0202 84.5792 41.7782 83.9451 41.312ZM84.9791 39.2V39.233C84.9791 40.021 85.6731 40.552 86.7061 40.552C88.0761 40.552 89.0711 39.768 89.0711 38.689V38.093C88.4269 37.8568 87.7451 37.7396 87.0591 37.747C85.757 37.747 84.9791 38.289 84.9791 39.2ZM77.5881 42H76.0001V33H79.5651C80.026 32.9693 80.4881 33.0379 80.9203 33.201C81.3524 33.3642 81.7446 33.6182 82.0702 33.9459C82.3958 34.2736 82.6472 34.6673 82.8077 35.1005C82.9681 35.5337 83.0337 35.9963 83.0001 36.457V36.487C83.0213 36.9764 82.9376 37.4647 82.7544 37.919C82.5712 38.3734 82.2929 38.7832 81.9381 39.121C81.2272 39.7263 80.3173 40.0469 79.3841 40.021H77.5841V42H77.5881ZM77.5881 38.378H79.4351C79.6877 38.3992 79.9421 38.3669 80.1814 38.283C80.4207 38.1991 80.6395 38.0655 80.8237 37.8912C81.0078 37.7168 81.1529 37.5055 81.2497 37.2711C81.3464 37.0367 81.3926 36.7845 81.3851 36.531V36.5C81.4046 36.2434 81.3668 35.9857 81.2741 35.7457C81.1815 35.5056 81.0366 35.2892 80.8497 35.1123C80.6629 34.9353 80.439 34.8023 80.1943 34.7228C79.9495 34.6434 79.6902 34.6195 79.4351 34.653H77.5891L77.5881 38.378ZM68.0001 40.7L68.7711 39.351C69.4441 39.9857 70.3186 40.364 71.2421 40.42C71.9851 40.42 72.4141 40.057 72.4141 39.482V39.449C72.4141 38.775 71.6141 38.549 70.7281 38.231C69.6141 37.869 68.3711 37.343 68.3711 35.681V35.649C68.3564 35.2941 68.4162 34.94 68.5465 34.6095C68.6768 34.279 68.8748 33.9794 69.1277 33.73C69.3807 33.4805 69.683 33.2867 70.0152 33.161C70.3475 33.0353 70.7023 32.9805 71.0571 33C72.0621 33.0283 73.0323 33.3737 73.8291 33.987L73.1441 35.4C72.5292 34.925 71.7895 34.6391 71.0151 34.577C70.3441 34.577 69.9581 34.94 69.9581 35.433V35.465C69.9581 36.107 70.7721 36.37 71.6581 36.699C72.7581 37.099 74.0011 37.67 74.0011 39.233V39.265C74.0264 39.6364 73.9707 40.0089 73.838 40.3567C73.7052 40.7045 73.4985 41.0193 73.2322 41.2794C72.9658 41.5394 72.6462 41.7386 72.2953 41.863C71.9444 41.9874 71.5708 42.0342 71.2001 42C70.0106 41.9713 68.8726 41.5089 68.0001 40.7ZM59.0001 37.525V37.492C58.9809 36.3326 59.3835 35.2057 60.1331 34.321C60.4932 33.9039 60.9395 33.5699 61.4412 33.3419C61.9429 33.1138 62.488 32.9972 63.0391 33C63.6081 32.9815 64.1734 33.0976 64.689 33.339C65.2046 33.5804 65.6559 33.9401 66.0061 34.389C66.6852 35.3338 67.0345 36.4759 67.0001 37.639C67.0001 37.796 66.9871 37.955 66.9741 38.122L66.9691 38.195H60.8951C60.9348 38.7957 61.2041 39.3581 61.6472 39.7656C62.0903 40.1731 62.6731 40.3946 63.2751 40.384C63.7005 40.3842 64.121 40.2923 64.5075 40.1145C64.894 39.9367 65.2374 39.6772 65.5141 39.354L66.6251 40.384C66.2282 40.9004 65.7151 41.3159 65.1274 41.5967C64.5398 41.8775 63.8942 42.0156 63.2431 42C62.6648 42.0042 62.0919 41.8895 61.5598 41.6631C61.0277 41.4367 60.5479 41.1033 60.15 40.6837C59.7522 40.264 59.4448 39.7671 59.247 39.2238C59.0491 38.6804 58.9651 38.1022 59.0001 37.525ZM60.8781 36.888H65.1211C64.9831 35.488 64.1811 34.617 63.0211 34.617C62.4424 34.653 61.8991 34.9077 61.5011 35.3294C61.1032 35.751 60.8805 36.3082 60.8781 36.888ZM55.9581 42V36.991C55.9581 35.622 55.2661 34.837 54.0511 34.837C53.7698 34.8297 53.4902 34.8828 53.2311 34.9926C52.9721 35.1024 52.7396 35.2664 52.5492 35.4736C52.3589 35.6808 52.2151 35.9264 52.1276 36.1939C52.0401 36.4613 52.011 36.7443 52.0421 37.024V42H50.0001V33.184H52.0421V34.536C52.3349 34.062 52.7451 33.6716 53.233 33.4025C53.7209 33.1334 54.2699 32.9948 54.8271 33C55.2671 32.9773 55.7068 33.0507 56.1157 33.2151C56.5245 33.3794 56.8927 33.6308 57.1946 33.9518C57.4965 34.2727 57.725 34.6555 57.864 35.0737C58.0031 35.4918 58.0495 35.9351 58.0001 36.373V42H55.9581ZM41.9461 41.312C41.6425 41.0763 41.3987 40.7724 41.2343 40.4249C41.07 40.0775 40.9897 39.6962 41.0001 39.312V39.28C40.9808 38.8723 41.0637 38.4662 41.2411 38.0986C41.4185 37.7311 41.6849 37.4136 42.0161 37.175C42.8023 36.6738 43.7248 36.4292 44.6561 36.475C45.464 36.4673 46.2679 36.5895 47.0371 36.837V36.626C47.0371 35.386 46.2771 34.726 44.8371 34.726C43.964 34.7283 43.1011 34.9136 42.3041 35.27L41.7711 33.708C42.8168 33.2256 43.9575 32.9836 45.1091 33C46.1775 32.9224 47.2331 33.2719 48.0441 33.972C48.3797 34.33 48.6378 34.7535 48.8023 35.2158C48.9668 35.6781 49.0341 36.1694 49.0001 36.659V41.818H47.0211V40.731C46.6672 41.1464 46.224 41.4764 45.7245 41.6961C45.2251 41.9159 44.6824 42.0198 44.1371 42C43.3506 42.0201 42.5798 41.7781 41.9461 41.312ZM42.9791 39.2V39.233C42.9791 40.021 43.6731 40.552 44.7061 40.552C46.0771 40.552 47.0711 39.768 47.0711 38.689V38.093C46.4265 37.8567 45.7445 37.7395 45.0581 37.747C43.7571 37.747 42.9791 38.289 42.9791 39.2ZM38.0001 42V33H40.0001V42H38.0001ZM32.0001 42V33.171H33.9651V35.16C34.1603 34.5147 34.5643 33.9525 35.1136 33.5615C35.6629 33.1706 36.3264 32.9731 37.0001 33V35.14H36.8861C35.1651 35.14 33.9651 36.294 33.9651 38.635V42H32.0001ZM23.9461 41.312C23.6425 41.0763 23.3987 40.7724 23.2343 40.4249C23.07 40.0775 22.9897 39.6962 23.0001 39.312V39.28C22.9808 38.8722 23.0637 38.466 23.2413 38.0984C23.4189 37.7308 23.6856 37.4133 24.0171 37.175C24.803 36.674 25.7251 36.4294 26.6561 36.475C27.464 36.4673 28.2679 36.5895 29.0371 36.837V36.626C29.0371 35.386 28.2771 34.726 26.8371 34.726C25.964 34.7283 25.1011 34.9136 24.3041 35.27L23.7711 33.708C24.8168 33.2256 25.9575 32.9836 27.1091 33C28.1775 32.9224 29.2331 33.2719 30.0441 33.972C30.3797 34.33 30.6378 34.7535 30.8023 35.2158C30.9668 35.6781 31.0341 36.1694 31.0001 36.659V41.818H29.0211V40.731C28.6672 41.1464 28.224 41.4764 27.7245 41.6961C27.2251 41.9159 26.6824 42.0198 26.1371 42C25.3506 42.0201 24.5798 41.7781 23.9461 41.312ZM24.9791 39.2V39.233C24.9791 40.021 25.6731 40.552 26.7061 40.552C28.0771 40.552 29.0711 39.768 29.0711 38.689V38.093C28.4265 37.8567 27.7445 37.7395 27.0581 37.747C25.7571 37.747 24.9791 38.289 24.9791 39.2Z" fill="black"/>
<path id="Sigle" d="M6.71288 40.169C7.09488 38.963 9.29988 37.385 12.5059 35.9C12.515 35.8964 12.5224 35.8893 12.5263 35.8803C12.5303 35.8713 12.5305 35.8611 12.5269 35.852C12.5233 35.8428 12.5162 35.8355 12.5072 35.8316C12.4982 35.8276 12.488 35.8274 12.4789 35.831C10.0088 36.4895 7.58845 37.3219 5.23588 38.322C2.51688 39.488 0.989879 40.6 1.20988 41.283C1.38188 41.817 3.04188 42.117 5.63588 41.722C5.66627 41.7984 5.70202 41.8726 5.74288 41.944C2.49688 42.644 0.447879 42.344 0.0748793 41.511C-0.425121 40.392 1.63688 38.579 5.00988 36.792C5.18813 35.4495 5.85541 34.22 6.88392 33.3389C7.91242 32.4579 9.22982 31.9873 10.5838 32.0172C11.9377 32.0472 13.233 32.5757 14.2215 33.5014C15.21 34.4271 15.8222 35.6849 15.9409 37.034C18.5449 35.9 19.9719 34.829 19.7899 34.15C19.6779 33.729 18.9809 33.45 17.8409 33.39C17.8311 33.2987 17.8123 33.2086 17.7849 33.121C19.5499 33.01 20.6559 33.321 20.9249 33.921C21.4359 35.059 19.2929 36.913 15.8249 38.729C15.5474 39.9396 14.8682 41.0206 13.8981 41.7961C12.928 42.5716 11.7239 42.9959 10.4819 43H10.4609C8.25388 43 6.22188 41.72 6.71288 40.169ZM15.9999 33.5C15.9999 33.4011 16.0292 33.3044 16.0841 33.2222C16.1391 33.14 16.2172 33.0759 16.3085 33.0381C16.3999 33.0002 16.5004 32.9903 16.5974 33.0096C16.6944 33.0289 16.7835 33.0765 16.8534 33.1464C16.9234 33.2164 16.971 33.3055 16.9903 33.4025C17.0096 33.4994 16.9997 33.6 16.9618 33.6913C16.924 33.7827 16.8599 33.8608 16.7777 33.9157C16.6954 33.9707 16.5988 34 16.4999 34C16.3673 34 16.2401 33.9473 16.1463 33.8536C16.0526 33.7598 15.9999 33.6326 15.9999 33.5Z" fill="black"/>
<path id="easy" d="M58.1659 20.857L59.7389 17.64C60.5781 18.0899 61.5119 18.3349 62.4639 18.355C63.7689 18.355 64.5749 17.82 65.3419 16.21L58.4529 1H63.4429L67.6069 11.31L71.3409 1H76.1769L69.6399 16.709C68.0289 20.57 66.2249 22 62.9629 22C61.2941 22.0202 59.6462 21.6275 58.1659 20.857ZM41.2999 17.8L43.3049 14.682C45.125 16.1761 47.3787 17.043 49.7309 17.154C51.6619 17.154 52.7769 16.317 52.7769 14.986V14.91C52.7769 13.352 50.6969 12.819 48.3939 12.097C45.4939 11.26 42.2659 10.043 42.2659 6.203V6.122C42.2659 2.322 45.3489 1.4808e-07 49.2489 1.4808e-07C51.8201 0.051681 54.3218 0.844028 56.4539 2.282L54.6709 5.552C53.0272 4.4395 51.1173 3.78379 49.1369 3.652C47.3919 3.652 46.3889 4.489 46.3889 5.629V5.7C46.3889 7.182 48.5059 7.791 50.8089 8.551C53.6679 9.464 56.8999 10.795 56.8999 14.407V14.483C56.8999 18.704 53.7049 20.795 49.6199 20.795C46.59 20.7531 43.6613 19.6989 41.2999 17.8ZM23.7999 19.21C23.1456 18.636 22.6268 17.9239 22.2809 17.1252C21.9351 16.3265 21.7708 15.4609 21.7999 14.591V14.515C21.7492 13.592 21.9174 12.6702 22.2907 11.8245C22.6639 10.9789 23.2318 10.2335 23.9479 9.649C25.5747 8.50492 27.5376 7.93816 29.5239 8.039C31.237 8.02337 32.9396 8.30731 34.5549 8.878V8.378C34.5951 7.78118 34.5097 7.18256 34.3044 6.62073C34.0991 6.05889 33.7784 5.54631 33.3629 5.116C32.3995 4.31369 31.1637 3.91394 29.9129 4C28.0571 4.00791 26.2274 4.43738 24.5619 5.256L23.4289 1.638C25.6118 0.528799 28.0316 -0.0333289 30.4799 1.4808e-07C33.2039 1.4808e-07 35.3479 0.777 36.6799 2.247C38.0199 3.647 38.6999 5.741 38.6999 8.457V20.381H34.5199V17.867C33.8614 18.7278 33.0259 19.4375 32.0699 19.948C30.9431 20.5255 29.6919 20.818 28.4259 20.8C26.7437 20.8379 25.1033 20.2741 23.7999 19.21ZM25.9829 14.324V14.4C25.9707 14.8317 26.0597 15.2603 26.2427 15.6515C26.4257 16.0427 26.6977 16.3857 27.0369 16.653C27.7911 17.1996 28.7059 17.4793 29.6369 17.448C32.5369 17.448 34.6369 15.637 34.6369 13.148V11.772C33.2857 11.229 31.841 10.9572 30.3849 10.972C27.6229 10.971 25.9799 12.225 25.9799 14.324H25.9829ZM3.98288 17.936C3.00984 16.9527 2.24436 15.7838 1.73192 14.4989C1.21948 13.2139 0.97054 11.8391 0.999881 10.456V10.381C0.96346 7.67742 1.95002 5.05994 3.76188 3.053C4.66448 2.07851 5.76086 1.30352 6.98064 0.777749C8.20043 0.251982 9.51667 -0.0129357 10.8449 1.4808e-07C12.2151 -0.0508594 13.5788 0.211779 14.8321 0.767896C16.0854 1.32401 17.1952 2.15893 18.0769 3.209C19.722 5.36109 20.5775 8.01324 20.4999 10.721C20.4999 11.097 20.4679 11.475 20.4339 11.876L20.4239 12H5.61688C5.75609 13.4239 6.43415 14.7408 7.51232 15.6812C8.59049 16.6216 9.98727 17.1145 11.4169 17.059C12.4421 17.0653 13.4574 16.8569 14.3972 16.4472C15.3371 16.0375 16.1807 15.4355 16.8739 14.68L19.5829 17.059C18.6403 18.2004 17.4642 19.1268 16.1339 19.776C14.6329 20.4722 12.9943 20.8209 11.3399 20.796C8.60628 20.8461 5.96278 19.8184 3.98088 17.935L3.98288 17.936ZM5.58288 8.986H15.9209C15.823 7.61234 15.2883 6.306 14.3949 5.258C13.9404 4.76292 13.3851 4.37106 12.7663 4.10885C12.1475 3.84664 11.4797 3.72018 10.8079 3.738C8.06288 3.737 6.01088 5.8 5.57888 8.985L5.58288 8.986Z" fill="#EE7203"/>
</g>
<defs>
<clipPath id="clip0">
<rect width="108.001" height="43" fill="white"/>
</clipPath>
</defs>
</svg>
